# xmcd
#
# Track frame offsets: 
#        150
#        17134
#        34454
#        47235
#        65574
#        78386
#        93001
#        105635
#        138655
#        152372
#        167451
#
# Disc length: 2463 seconds
#
# Revision: 1
# Processed by: cddbd v1.5.1PL2 Copyright (c) Steve Scherf et al.
# Submitted via: ExactAudioCopy v0.90b4
#
DISCID=86099d0b
DTITLE=Звуки Му - Простые вещи [CD1]
DYEAR=1996
DGENRE=General Blue
TTITLE0=Серый голубь
TTITLE1=Шуба-дуба блюз
TTITLE2=Зима
TTITLE3=Цветочки-лютики
TTITLE4=Люляки баб
TTITLE5=Мумия
TTITLE6=Источник заразы
TTITLE7=Хорошая песня
TTITLE8=Бумажные цветы
TTITLE9=0-1
TTITLE10=Союзпечать
EXTD=
EXTT0=
EXTT1=
EXTT2=
EXTT3=
EXTT4=
EXTT5=
EXTT6=
EXTT7=
EXTT8=
EXTT9=
EXTT10=
PLAYORDER=
